<svg width="1110" height="300" viewBox="0 0 1110 300" fill="none" xmlns="http://www.w3.org/2000/svg">
<rect width="1110" height="300" fill="#F7F7F7"/>
<path d="M191.319 135.944L205.719 113.696C205.959 113.312 206.175 112.976 206.367 112.688C206.559 112.4 206.727 112.136 206.871 111.896C208.599 109.208 209.871 106.976 210.687 105.2C211.503 103.424 211.911 101.408 211.911 99.152C211.911 94.64 210.327 92.384 207.159 92.384C204.999 92.384 203.487 93.224 202.623 94.904C201.759 96.584 201.327 98.84 201.327 101.672V104.12H191.535V101.528C191.535 96.056 192.759 91.784 195.207 88.712C197.703 85.592 201.591 84.032 206.871 84.032C211.767 84.032 215.487 85.376 218.031 88.064C220.575 90.704 221.847 94.424 221.847 99.224C221.847 102.2 221.319 104.84 220.263 107.144C219.255 109.448 217.671 112.28 215.511 115.64L214.647 116.936L202.623 135.008H220.335V143H191.319V135.944ZM243.31 143.792C238.174 143.792 234.334 142.04 231.79 138.536C229.294 135.032 228.046 130.4 228.046 124.64V104.192C228.046 97.904 229.174 92.984 231.43 89.432C233.734 85.832 237.67 84.032 243.238 84.032C248.23 84.032 251.878 85.256 254.182 87.704C256.534 90.152 257.758 93.8 257.854 98.648V99.584H248.278C248.278 96.8 247.942 94.808 247.27 93.608C246.598 92.408 245.278 91.808 243.31 91.808C241.39 91.808 240.022 92.72 239.206 94.544C238.438 96.32 238.054 99.416 238.054 103.832V110.744C238.774 109.592 239.83 108.704 241.222 108.08C242.662 107.456 244.318 107.144 246.19 107.144C254.398 107.144 258.502 112.736 258.502 123.92C258.502 137.168 253.438 143.792 243.31 143.792ZM243.382 136.088C245.302 136.088 246.622 135.224 247.342 133.496C248.11 131.768 248.494 129.2 248.494 125.792C248.494 123.152 248.398 121.112 248.206 119.672C248.062 118.184 247.606 116.984 246.838 116.072C246.118 115.16 244.942 114.704 243.31 114.704C242.158 114.704 241.102 115.016 240.142 115.64C239.23 116.264 238.534 116.984 238.054 117.8V126.944C238.054 129.68 238.462 131.888 239.278 133.568C240.094 135.248 241.462 136.088 243.382 136.088Z" fill="#F7654A"/>
<path d="M192.186 232.596H194.634V236.79H196.74V232.596H199.188V243H196.74V238.518H194.634V243H192.186V232.596ZM203.079 243.162C202.635 243.162 202.239 243.042 201.891 242.802C201.555 242.562 201.291 242.256 201.099 241.884C200.919 241.5 200.829 241.104 200.829 240.696C200.829 239.892 201.015 239.232 201.387 238.716C201.771 238.188 202.239 237.78 202.791 237.492C203.355 237.204 204.099 236.886 205.023 236.538V235.638C205.023 235.158 204.963 234.81 204.843 234.594C204.735 234.366 204.519 234.252 204.195 234.252C203.643 234.252 203.355 234.636 203.331 235.404L203.295 236.034L200.973 235.944C201.009 234.744 201.303 233.862 201.855 233.298C202.419 232.722 203.265 232.434 204.393 232.434C205.413 232.434 206.169 232.716 206.661 233.28C207.153 233.832 207.399 234.618 207.399 235.638V240.444C207.399 241.188 207.459 242.04 207.579 243H205.383C205.263 242.352 205.179 241.854 205.131 241.506C204.987 241.974 204.741 242.37 204.393 242.694C204.057 243.006 203.619 243.162 203.079 243.162ZM203.979 241.344C204.183 241.344 204.375 241.272 204.555 241.128C204.747 240.984 204.903 240.828 205.023 240.66V237.744C204.387 238.116 203.913 238.476 203.601 238.824C203.289 239.16 203.133 239.586 203.133 240.102C203.133 240.486 203.205 240.792 203.349 241.02C203.505 241.236 203.715 241.344 203.979 241.344ZM213.579 232.596H216.027V233.388C216.687 232.752 217.395 232.434 218.151 232.434C218.991 232.434 219.585 232.782 219.933 233.478C220.281 234.174 220.455 234.984 220.455 235.908V239.436C220.455 240.552 220.257 241.452 219.861 242.136C219.477 242.82 218.865 243.162 218.025 243.162C217.353 243.162 216.687 242.85 216.027 242.226V246.42H213.579V232.596ZM217.107 241.452C217.455 241.452 217.689 241.284 217.809 240.948C217.941 240.612 218.007 240.138 218.007 239.526V235.782C218.007 235.242 217.941 234.822 217.809 234.522C217.677 234.222 217.437 234.072 217.089 234.072C216.729 234.072 216.375 234.222 216.027 234.522V241.092C216.363 241.332 216.723 241.452 217.107 241.452ZM222.139 232.596H224.587V236.826H224.785C225.781 236.838 226.579 236.934 227.179 237.114C227.779 237.294 228.223 237.606 228.511 238.05C228.811 238.494 228.961 239.112 228.961 239.904C228.961 240.66 228.817 241.266 228.529 241.722C228.253 242.166 227.803 242.49 227.179 242.694C226.567 242.898 225.739 243 224.695 243H222.139V232.596ZM230.113 232.596H232.561V243H230.113V232.596ZM224.677 241.578C225.457 241.578 225.997 241.464 226.297 241.236C226.597 240.996 226.747 240.558 226.747 239.922C226.747 239.502 226.687 239.178 226.567 238.95C226.447 238.71 226.243 238.542 225.955 238.446C225.667 238.35 225.259 238.296 224.731 238.284H224.587V241.578H224.677ZM234.426 232.596H236.874V236.79H238.98V232.596H241.428V243H238.98V238.518H236.874V243H234.426V232.596ZM243.303 232.596H245.751V236.844H246.237L248.001 232.596H250.593L248.469 237.564L250.647 243H248.055L246.237 238.266H245.751V243H243.303V232.596ZM254.803 243.162C253.651 243.162 252.805 242.844 252.265 242.208C251.725 241.56 251.455 240.606 251.455 239.346V236.25C251.455 234.978 251.725 234.024 252.265 233.388C252.817 232.752 253.663 232.434 254.803 232.434C255.979 232.434 256.807 232.764 257.287 233.424C257.779 234.084 258.025 235.08 258.025 236.412V237.906H253.885V239.958C253.885 240.462 253.957 240.828 254.101 241.056C254.257 241.284 254.497 241.398 254.821 241.398C255.133 241.398 255.355 241.29 255.487 241.074C255.631 240.846 255.703 240.504 255.703 240.048V239.166H258.007V239.886C258.007 240.954 257.737 241.77 257.197 242.334C256.657 242.886 255.859 243.162 254.803 243.162ZM255.703 236.7V235.71C255.703 235.17 255.637 234.786 255.505 234.558C255.373 234.318 255.139 234.198 254.803 234.198C254.455 234.198 254.215 234.324 254.083 234.576C253.951 234.828 253.885 235.296 253.885 235.98V236.7H255.703Z" fill="#999999"/>
<path d="M198.602 207.184C199.826 207.208 200.702 207.016 201.23 206.608C201.782 206.176 202.202 205.216 202.49 203.728C202.778 202.24 203.054 199.684 203.318 196.06L204.254 181.84H218.438V211H213.146V185.836H208.934L208.322 196.708C208.082 200.596 207.758 203.488 207.35 205.384C206.942 207.256 206.174 208.672 205.046 209.632C203.942 210.568 202.226 211.036 199.898 211.036C199.346 211.036 198.914 211.024 198.602 211V207.184ZM222.942 181.84H235.182V185.584H228.234V193.972H233.706V197.68H228.234V207.364H235.254V211H222.942V181.84ZM241.257 185.764H236.613V181.84H251.121V185.764H246.585V211H241.257V185.764Z" fill="black"/>
<path d="M411.319 135.944L425.719 113.696C425.959 113.312 426.175 112.976 426.367 112.688C426.559 112.4 426.727 112.136 426.871 111.896C428.599 109.208 429.871 106.976 430.687 105.2C431.503 103.424 431.911 101.408 431.911 99.152C431.911 94.64 430.327 92.384 427.159 92.384C424.999 92.384 423.487 93.224 422.623 94.904C421.759 96.584 421.327 98.84 421.327 101.672V104.12H411.535V101.528C411.535 96.056 412.759 91.784 415.207 88.712C417.703 85.592 421.591 84.032 426.871 84.032C431.767 84.032 435.487 85.376 438.031 88.064C440.575 90.704 441.847 94.424 441.847 99.224C441.847 102.2 441.319 104.84 440.263 107.144C439.255 109.448 437.671 112.28 435.511 115.64L434.647 116.936L422.623 135.008H440.335V143H411.319V135.944ZM463.31 143.792C458.174 143.792 454.334 142.04 451.79 138.536C449.294 135.032 448.046 130.4 448.046 124.64V104.192C448.046 97.904 449.174 92.984 451.43 89.432C453.734 85.832 457.67 84.032 463.238 84.032C468.23 84.032 471.878 85.256 474.182 87.704C476.534 90.152 477.758 93.8 477.854 98.648V99.584H468.278C468.278 96.8 467.942 94.808 467.27 93.608C466.598 92.408 465.278 91.808 463.31 91.808C461.39 91.808 460.022 92.72 459.206 94.544C458.438 96.32 458.054 99.416 458.054 103.832V110.744C458.774 109.592 459.83 108.704 461.222 108.08C462.662 107.456 464.318 107.144 466.19 107.144C474.398 107.144 478.502 112.736 478.502 123.92C478.502 137.168 473.438 143.792 463.31 143.792ZM463.382 136.088C465.302 136.088 466.622 135.224 467.342 133.496C468.11 131.768 468.494 129.2 468.494 125.792C468.494 123.152 468.398 121.112 468.206 119.672C468.062 118.184 467.606 116.984 466.838 116.072C466.118 115.16 464.942 114.704 463.31 114.704C462.158 114.704 461.102 115.016 460.142 115.64C459.23 116.264 458.534 116.984 458.054 117.8V126.944C458.054 129.68 458.462 131.888 459.278 133.568C460.094 135.248 461.462 136.088 463.382 136.088Z" fill="#F7654A"/>
<path d="M412.186 232.596H414.634V236.79H416.74V232.596H419.188V243H416.74V238.518H414.634V243H412.186V232.596ZM423.079 243.162C422.635 243.162 422.239 243.042 421.891 242.802C421.555 242.562 421.291 242.256 421.099 241.884C420.919 241.5 420.829 241.104 420.829 240.696C420.829 239.892 421.015 239.232 421.387 238.716C421.771 238.188 422.239 237.78 422.791 237.492C423.355 237.204 424.099 236.886 425.023 236.538V235.638C425.023 235.158 424.963 234.81 424.843 234.594C424.735 234.366 424.519 234.252 424.195 234.252C423.643 234.252 423.355 234.636 423.331 235.404L423.295 236.034L420.973 235.944C421.009 234.744 421.303 233.862 421.855 233.298C422.419 232.722 423.265 232.434 424.393 232.434C425.413 232.434 426.169 232.716 426.661 233.28C427.153 233.832 427.399 234.618 427.399 235.638V240.444C427.399 241.188 427.459 242.04 427.579 243H425.383C425.263 242.352 425.179 241.854 425.131 241.506C424.987 241.974 424.741 242.37 424.393 242.694C424.057 243.006 423.619 243.162 423.079 243.162ZM423.979 241.344C424.183 241.344 424.375 241.272 424.555 241.128C424.747 240.984 424.903 240.828 425.023 240.66V237.744C424.387 238.116 423.913 238.476 423.601 238.824C423.289 239.16 423.133 239.586 423.133 240.102C423.133 240.486 423.205 240.792 423.349 241.02C423.505 241.236 423.715 241.344 423.979 241.344ZM433.579 232.596H436.027V233.388C436.687 232.752 437.395 232.434 438.151 232.434C438.991 232.434 439.585 232.782 439.933 233.478C440.281 234.174 440.455 234.984 440.455 235.908V239.436C440.455 240.552 440.257 241.452 439.861 242.136C439.477 242.82 438.865 243.162 438.025 243.162C437.353 243.162 436.687 242.85 436.027 242.226V246.42H433.579V232.596ZM437.107 241.452C437.455 241.452 437.689 241.284 437.809 240.948C437.941 240.612 438.007 240.138 438.007 239.526V235.782C438.007 235.242 437.941 234.822 437.809 234.522C437.677 234.222 437.437 234.072 437.089 234.072C436.729 234.072 436.375 234.222 436.027 234.522V241.092C436.363 241.332 436.723 241.452 437.107 241.452ZM442.139 232.596H444.587V236.826H444.785C445.781 236.838 446.579 236.934 447.179 237.114C447.779 237.294 448.223 237.606 448.511 238.05C448.811 238.494 448.961 239.112 448.961 239.904C448.961 240.66 448.817 241.266 448.529 241.722C448.253 242.166 447.803 242.49 447.179 242.694C446.567 242.898 445.739 243 444.695 243H442.139V232.596ZM450.113 232.596H452.561V243H450.113V232.596ZM444.677 241.578C445.457 241.578 445.997 241.464 446.297 241.236C446.597 240.996 446.747 240.558 446.747 239.922C446.747 239.502 446.687 239.178 446.567 238.95C446.447 238.71 446.243 238.542 445.955 238.446C445.667 238.35 445.259 238.296 444.731 238.284H444.587V241.578H444.677ZM454.426 232.596H456.874V236.79H458.98V232.596H461.428V243H458.98V238.518H456.874V243H454.426V232.596ZM463.303 232.596H465.751V236.844H466.237L468.001 232.596H470.593L468.469 237.564L470.647 243H468.055L466.237 238.266H465.751V243H463.303V232.596ZM474.803 243.162C473.651 243.162 472.805 242.844 472.265 242.208C471.725 241.56 471.455 240.606 471.455 239.346V236.25C471.455 234.978 471.725 234.024 472.265 233.388C472.817 232.752 473.663 232.434 474.803 232.434C475.979 232.434 476.807 232.764 477.287 233.424C477.779 234.084 478.025 235.08 478.025 236.412V237.906H473.885V239.958C473.885 240.462 473.957 240.828 474.101 241.056C474.257 241.284 474.497 241.398 474.821 241.398C475.133 241.398 475.355 241.29 475.487 241.074C475.631 240.846 475.703 240.504 475.703 240.048V239.166H478.007V239.886C478.007 240.954 477.737 241.77 477.197 242.334C476.657 242.886 475.859 243.162 474.803 243.162ZM475.703 236.7V235.71C475.703 235.17 475.637 234.786 475.505 234.558C475.373 234.318 475.139 234.198 474.803 234.198C474.455 234.198 474.215 234.324 474.083 234.576C473.951 234.828 473.885 235.296 473.885 235.98V236.7H475.703Z" fill="#999999"/>
<path d="M418.602 207.184C419.826 207.208 420.702 207.016 421.23 206.608C421.782 206.176 422.202 205.216 422.49 203.728C422.778 202.24 423.054 199.684 423.318 196.06L424.254 181.84H438.438V211H433.146V185.836H428.934L428.322 196.708C428.082 200.596 427.758 203.488 427.35 205.384C426.942 207.256 426.174 208.672 425.046 209.632C423.942 210.568 422.226 211.036 419.898 211.036C419.346 211.036 418.914 211.024 418.602 211V207.184ZM442.942 181.84H455.182V185.584H448.234V193.972H453.706V197.68H448.234V207.364H455.254V211H442.942V181.84ZM461.257 185.764H456.613V181.84H471.121V185.764H466.585V211H461.257V185.764Z" fill="black"/>
<path d="M631.319 135.944L645.719 113.696C645.959 113.312 646.175 112.976 646.367 112.688C646.559 112.4 646.727 112.136 646.871 111.896C648.599 109.208 649.871 106.976 650.687 105.2C651.503 103.424 651.911 101.408 651.911 99.152C651.911 94.64 650.327 92.384 647.159 92.384C644.999 92.384 643.487 93.224 642.623 94.904C641.759 96.584 641.327 98.84 641.327 101.672V104.12H631.535V101.528C631.535 96.056 632.759 91.784 635.207 88.712C637.703 85.592 641.591 84.032 646.871 84.032C651.767 84.032 655.487 85.376 658.031 88.064C660.575 90.704 661.847 94.424 661.847 99.224C661.847 102.2 661.319 104.84 660.263 107.144C659.255 109.448 657.671 112.28 655.511 115.64L654.647 116.936L642.623 135.008H660.335V143H631.319V135.944ZM683.31 143.792C678.174 143.792 674.334 142.04 671.79 138.536C669.294 135.032 668.046 130.4 668.046 124.64V104.192C668.046 97.904 669.174 92.984 671.43 89.432C673.734 85.832 677.67 84.032 683.238 84.032C688.23 84.032 691.878 85.256 694.182 87.704C696.534 90.152 697.758 93.8 697.854 98.648V99.584H688.278C688.278 96.8 687.942 94.808 687.27 93.608C686.598 92.408 685.278 91.808 683.31 91.808C681.39 91.808 680.022 92.72 679.206 94.544C678.438 96.32 678.054 99.416 678.054 103.832V110.744C678.774 109.592 679.83 108.704 681.222 108.08C682.662 107.456 684.318 107.144 686.19 107.144C694.398 107.144 698.502 112.736 698.502 123.92C698.502 137.168 693.438 143.792 683.31 143.792ZM683.382 136.088C685.302 136.088 686.622 135.224 687.342 133.496C688.11 131.768 688.494 129.2 688.494 125.792C688.494 123.152 688.398 121.112 688.206 119.672C688.062 118.184 687.606 116.984 686.838 116.072C686.118 115.16 684.942 114.704 683.31 114.704C682.158 114.704 681.102 115.016 680.142 115.64C679.23 116.264 678.534 116.984 678.054 117.8V126.944C678.054 129.68 678.462 131.888 679.278 133.568C680.094 135.248 681.462 136.088 683.382 136.088Z" fill="#F7654A"/>
<path d="M632.186 232.596H634.634V236.79H636.74V232.596H639.188V243H636.74V238.518H634.634V243H632.186V232.596ZM643.079 243.162C642.635 243.162 642.239 243.042 641.891 242.802C641.555 242.562 641.291 242.256 641.099 241.884C640.919 241.5 640.829 241.104 640.829 240.696C640.829 239.892 641.015 239.232 641.387 238.716C641.771 238.188 642.239 237.78 642.791 237.492C643.355 237.204 644.099 236.886 645.023 236.538V235.638C645.023 235.158 644.963 234.81 644.843 234.594C644.735 234.366 644.519 234.252 644.195 234.252C643.643 234.252 643.355 234.636 643.331 235.404L643.295 236.034L640.973 235.944C641.009 234.744 641.303 233.862 641.855 233.298C642.419 232.722 643.265 232.434 644.393 232.434C645.413 232.434 646.169 232.716 646.661 233.28C647.153 233.832 647.399 234.618 647.399 235.638V240.444C647.399 241.188 647.459 242.04 647.579 243H645.383C645.263 242.352 645.179 241.854 645.131 241.506C644.987 241.974 644.741 242.37 644.393 242.694C644.057 243.006 643.619 243.162 643.079 243.162ZM643.979 241.344C644.183 241.344 644.375 241.272 644.555 241.128C644.747 240.984 644.903 240.828 645.023 240.66V237.744C644.387 238.116 643.913 238.476 643.601 238.824C643.289 239.16 643.133 239.586 643.133 240.102C643.133 240.486 643.205 240.792 643.349 241.02C643.505 241.236 643.715 241.344 643.979 241.344ZM653.579 232.596H656.027V233.388C656.687 232.752 657.395 232.434 658.151 232.434C658.991 232.434 659.585 232.782 659.933 233.478C660.281 234.174 660.455 234.984 660.455 235.908V239.436C660.455 240.552 660.257 241.452 659.861 242.136C659.477 242.82 658.865 243.162 658.025 243.162C657.353 243.162 656.687 242.85 656.027 242.226V246.42H653.579V232.596ZM657.107 241.452C657.455 241.452 657.689 241.284 657.809 240.948C657.941 240.612 658.007 240.138 658.007 239.526V235.782C658.007 235.242 657.941 234.822 657.809 234.522C657.677 234.222 657.437 234.072 657.089 234.072C656.729 234.072 656.375 234.222 656.027 234.522V241.092C656.363 241.332 656.723 241.452 657.107 241.452ZM662.139 232.596H664.587V236.826H664.785C665.781 236.838 666.579 236.934 667.179 237.114C667.779 237.294 668.223 237.606 668.511 238.05C668.811 238.494 668.961 239.112 668.961 239.904C668.961 240.66 668.817 241.266 668.529 241.722C668.253 242.166 667.803 242.49 667.179 242.694C666.567 242.898 665.739 243 664.695 243H662.139V232.596ZM670.113 232.596H672.561V243H670.113V232.596ZM664.677 241.578C665.457 241.578 665.997 241.464 666.297 241.236C666.597 240.996 666.747 240.558 666.747 239.922C666.747 239.502 666.687 239.178 666.567 238.95C666.447 238.71 666.243 238.542 665.955 238.446C665.667 238.35 665.259 238.296 664.731 238.284H664.587V241.578H664.677ZM674.426 232.596H676.874V236.79H678.98V232.596H681.428V243H678.98V238.518H676.874V243H674.426V232.596ZM683.303 232.596H685.751V236.844H686.237L688.001 232.596H690.593L688.469 237.564L690.647 243H688.055L686.237 238.266H685.751V243H683.303V232.596ZM694.803 243.162C693.651 243.162 692.805 242.844 692.265 242.208C691.725 241.56 691.455 240.606 691.455 239.346V236.25C691.455 234.978 691.725 234.024 692.265 233.388C692.817 232.752 693.663 232.434 694.803 232.434C695.979 232.434 696.807 232.764 697.287 233.424C697.779 234.084 698.025 235.08 698.025 236.412V237.906H693.885V239.958C693.885 240.462 693.957 240.828 694.101 241.056C694.257 241.284 694.497 241.398 694.821 241.398C695.133 241.398 695.355 241.29 695.487 241.074C695.631 240.846 695.703 240.504 695.703 240.048V239.166H698.007V239.886C698.007 240.954 697.737 241.77 697.197 242.334C696.657 242.886 695.859 243.162 694.803 243.162ZM695.703 236.7V235.71C695.703 235.17 695.637 234.786 695.505 234.558C695.373 234.318 695.139 234.198 694.803 234.198C694.455 234.198 694.215 234.324 694.083 234.576C693.951 234.828 693.885 235.296 693.885 235.98V236.7H695.703Z" fill="#999999"/>
<path d="M638.602 207.184C639.826 207.208 640.702 207.016 641.23 206.608C641.782 206.176 642.202 205.216 642.49 203.728C642.778 202.24 643.054 199.684 643.318 196.06L644.254 181.84H658.438V211H653.146V185.836H648.934L648.322 196.708C648.082 200.596 647.758 203.488 647.35 205.384C646.942 207.256 646.174 208.672 645.046 209.632C643.942 210.568 642.226 211.036 639.898 211.036C639.346 211.036 638.914 211.024 638.602 211V207.184ZM662.942 181.84H675.182V185.584H668.234V193.972H673.706V197.68H668.234V207.364H675.254V211H662.942V181.84ZM681.257 185.764H676.613V181.84H691.121V185.764H686.585V211H681.257V185.764Z" fill="black"/>
<path d="M851.319 135.944L865.719 113.696C865.959 113.312 866.175 112.976 866.367 112.688C866.559 112.4 866.727 112.136 866.871 111.896C868.599 109.208 869.871 106.976 870.687 105.2C871.503 103.424 871.911 101.408 871.911 99.152C871.911 94.64 870.327 92.384 867.159 92.384C864.999 92.384 863.487 93.224 862.623 94.904C861.759 96.584 861.327 98.84 861.327 101.672V104.12H851.535V101.528C851.535 96.056 852.759 91.784 855.207 88.712C857.703 85.592 861.591 84.032 866.871 84.032C871.767 84.032 875.487 85.376 878.031 88.064C880.575 90.704 881.847 94.424 881.847 99.224C881.847 102.2 881.319 104.84 880.263 107.144C879.255 109.448 877.671 112.28 875.511 115.64L874.647 116.936L862.623 135.008H880.335V143H851.319V135.944ZM903.31 143.792C898.174 143.792 894.334 142.04 891.79 138.536C889.294 135.032 888.046 130.4 888.046 124.64V104.192C888.046 97.904 889.174 92.984 891.43 89.432C893.734 85.832 897.67 84.032 903.238 84.032C908.23 84.032 911.878 85.256 914.182 87.704C916.534 90.152 917.758 93.8 917.854 98.648V99.584H908.278C908.278 96.8 907.942 94.808 907.27 93.608C906.598 92.408 905.278 91.808 903.31 91.808C901.39 91.808 900.022 92.72 899.206 94.544C898.438 96.32 898.054 99.416 898.054 103.832V110.744C898.774 109.592 899.83 108.704 901.222 108.08C902.662 107.456 904.318 107.144 906.19 107.144C914.398 107.144 918.502 112.736 918.502 123.92C918.502 137.168 913.438 143.792 903.31 143.792ZM903.382 136.088C905.302 136.088 906.622 135.224 907.342 133.496C908.11 131.768 908.494 129.2 908.494 125.792C908.494 123.152 908.398 121.112 908.206 119.672C908.062 118.184 907.606 116.984 906.838 116.072C906.118 115.16 904.942 114.704 903.31 114.704C902.158 114.704 901.102 115.016 900.142 115.64C899.23 116.264 898.534 116.984 898.054 117.8V126.944C898.054 129.68 898.462 131.888 899.278 133.568C900.094 135.248 901.462 136.088 903.382 136.088Z" fill="#F7654A"/>
<path d="M852.186 232.596H854.634V236.79H856.74V232.596H859.188V243H856.74V238.518H854.634V243H852.186V232.596ZM863.079 243.162C862.635 243.162 862.239 243.042 861.891 242.802C861.555 242.562 861.291 242.256 861.099 241.884C860.919 241.5 860.829 241.104 860.829 240.696C860.829 239.892 861.015 239.232 861.387 238.716C861.771 238.188 862.239 237.78 862.791 237.492C863.355 237.204 864.099 236.886 865.023 236.538V235.638C865.023 235.158 864.963 234.81 864.843 234.594C864.735 234.366 864.519 234.252 864.195 234.252C863.643 234.252 863.355 234.636 863.331 235.404L863.295 236.034L860.973 235.944C861.009 234.744 861.303 233.862 861.855 233.298C862.419 232.722 863.265 232.434 864.393 232.434C865.413 232.434 866.169 232.716 866.661 233.28C867.153 233.832 867.399 234.618 867.399 235.638V240.444C867.399 241.188 867.459 242.04 867.579 243H865.383C865.263 242.352 865.179 241.854 865.131 241.506C864.987 241.974 864.741 242.37 864.393 242.694C864.057 243.006 863.619 243.162 863.079 243.162ZM863.979 241.344C864.183 241.344 864.375 241.272 864.555 241.128C864.747 240.984 864.903 240.828 865.023 240.66V237.744C864.387 238.116 863.913 238.476 863.601 238.824C863.289 239.16 863.133 239.586 863.133 240.102C863.133 240.486 863.205 240.792 863.349 241.02C863.505 241.236 863.715 241.344 863.979 241.344ZM873.579 232.596H876.027V233.388C876.687 232.752 877.395 232.434 878.151 232.434C878.991 232.434 879.585 232.782 879.933 233.478C880.281 234.174 880.455 234.984 880.455 235.908V239.436C880.455 240.552 880.257 241.452 879.861 242.136C879.477 242.82 878.865 243.162 878.025 243.162C877.353 243.162 876.687 242.85 876.027 242.226V246.42H873.579V232.596ZM877.107 241.452C877.455 241.452 877.689 241.284 877.809 240.948C877.941 240.612 878.007 240.138 878.007 239.526V235.782C878.007 235.242 877.941 234.822 877.809 234.522C877.677 234.222 877.437 234.072 877.089 234.072C876.729 234.072 876.375 234.222 876.027 234.522V241.092C876.363 241.332 876.723 241.452 877.107 241.452ZM882.139 232.596H884.587V236.826H884.785C885.781 236.838 886.579 236.934 887.179 237.114C887.779 237.294 888.223 237.606 888.511 238.05C888.811 238.494 888.961 239.112 888.961 239.904C888.961 240.66 888.817 241.266 888.529 241.722C888.253 242.166 887.803 242.49 887.179 242.694C886.567 242.898 885.739 243 884.695 243H882.139V232.596ZM890.113 232.596H892.561V243H890.113V232.596ZM884.677 241.578C885.457 241.578 885.997 241.464 886.297 241.236C886.597 240.996 886.747 240.558 886.747 239.922C886.747 239.502 886.687 239.178 886.567 238.95C886.447 238.71 886.243 238.542 885.955 238.446C885.667 238.35 885.259 238.296 884.731 238.284H884.587V241.578H884.677ZM894.426 232.596H896.874V236.79H898.98V232.596H901.428V243H898.98V238.518H896.874V243H894.426V232.596ZM903.303 232.596H905.751V236.844H906.237L908.001 232.596H910.593L908.469 237.564L910.647 243H908.055L906.237 238.266H905.751V243H903.303V232.596ZM914.803 243.162C913.651 243.162 912.805 242.844 912.265 242.208C911.725 241.56 911.455 240.606 911.455 239.346V236.25C911.455 234.978 911.725 234.024 912.265 233.388C912.817 232.752 913.663 232.434 914.803 232.434C915.979 232.434 916.807 232.764 917.287 233.424C917.779 234.084 918.025 235.08 918.025 236.412V237.906H913.885V239.958C913.885 240.462 913.957 240.828 914.101 241.056C914.257 241.284 914.497 241.398 914.821 241.398C915.133 241.398 915.355 241.29 915.487 241.074C915.631 240.846 915.703 240.504 915.703 240.048V239.166H918.007V239.886C918.007 240.954 917.737 241.77 917.197 242.334C916.657 242.886 915.859 243.162 914.803 243.162ZM915.703 236.7V235.71C915.703 235.17 915.637 234.786 915.505 234.558C915.373 234.318 915.139 234.198 914.803 234.198C914.455 234.198 914.215 234.324 914.083 234.576C913.951 234.828 913.885 235.296 913.885 235.98V236.7H915.703Z" fill="#999999"/>
<path d="M858.602 207.184C859.826 207.208 860.702 207.016 861.23 206.608C861.782 206.176 862.202 205.216 862.49 203.728C862.778 202.24 863.054 199.684 863.318 196.06L864.254 181.84H878.438V211H873.146V185.836H868.934L868.322 196.708C868.082 200.596 867.758 203.488 867.35 205.384C866.942 207.256 866.174 208.672 865.046 209.632C863.942 210.568 862.226 211.036 859.898 211.036C859.346 211.036 858.914 211.024 858.602 211V207.184ZM882.942 181.84H895.182V185.584H888.234V193.972H893.706V197.68H888.234V207.364H895.254V211H882.942V181.84ZM901.257 185.764H896.613V181.84H911.121V185.764H906.585V211H901.257V185.764Z" fill="black"/>
</svg>
