<svg width="696" height="162" viewBox="0 0 696 162" fill="none" xmlns="http://www.w3.org/2000/svg">
<path d="M0.962747 14.16H16.1947C25.0267 14.16 29.4427 19.0667 29.4427 28.88C29.4427 38.2667 24.8134 42.96 15.5547 42.96H10.3707V66H0.962747V14.16ZM14.0187 36.304C16.5787 36.304 18.3067 35.7707 19.2027 34.704C20.0987 33.5947 20.5467 31.632 20.5467 28.816C20.5467 26.768 20.3974 25.2107 20.0987 24.144C19.8001 23.0347 19.1814 22.2027 18.2427 21.648C17.3467 21.0933 15.9387 20.816 14.0187 20.816H10.3707V36.304H14.0187ZM35.9927 14.16H57.7527V20.816H45.4007V35.728H55.1287V42.32H45.4007V59.536H57.8807V66H35.9927V14.16ZM72.3917 14.16H82.5037L92.8717 66H84.1037L82.0557 54.032H73.0317L70.9197 66H62.0237L72.3917 14.16ZM81.0317 48.016L77.5117 26.256L73.9917 48.016H81.0317ZM95.7812 59.216C97.9572 59.2587 99.5146 58.9173 100.453 58.192C101.435 57.424 102.181 55.7173 102.693 53.072C103.205 50.4267 103.696 45.8827 104.165 39.44L105.829 14.16H131.045V66H121.637V21.264H114.149L113.061 40.592C112.635 47.504 112.059 52.6453 111.333 56.016C110.608 59.344 109.243 61.8613 107.237 63.568C105.275 65.232 102.224 66.064 98.0852 66.064C97.1039 66.064 96.3359 66.0427 95.7812 66V59.216ZM140.461 14.16H148.205V46.864L162.413 14.16H168.749V66H160.877V32.72L146.669 66H140.461V14.16ZM190.34 66.768C181.294 66.768 176.772 61.8187 176.772 51.92V50.128H185.604C185.604 50.9813 185.625 51.6213 185.668 52.048C185.71 54.608 186.052 56.464 186.692 57.616C187.374 58.768 188.612 59.344 190.404 59.344C192.238 59.344 193.476 58.704 194.116 57.424C194.756 56.1013 195.076 54.032 195.076 51.216C195.076 48.4 194.542 46.2667 193.476 44.816C192.452 43.3653 190.574 42.5547 187.844 42.384H185.412V36.112C186.478 36.112 187.246 36.0907 187.716 36.048C190.489 35.92 192.409 35.1947 193.476 33.872C194.542 32.5067 195.076 30.416 195.076 27.6C195.076 25.3387 194.67 23.6107 193.86 22.416C193.092 21.2213 191.812 20.624 190.02 20.624C188.27 20.624 186.99 21.2427 186.18 22.48C185.369 23.6747 184.921 25.3813 184.836 27.6V29.84H176.004V27.408C176.004 23.0133 177.22 19.6 179.652 17.168C182.126 14.736 185.54 13.52 189.892 13.52C194.286 13.52 197.7 14.736 200.132 17.168C202.606 19.5573 203.844 22.928 203.844 27.28C203.844 30.2667 203.204 32.784 201.924 34.832C200.686 36.88 199.044 38.1813 196.996 38.736C201.561 40.4 203.844 44.5173 203.844 51.088C203.844 56.0373 202.756 59.8987 200.58 62.672C198.446 65.4027 195.033 66.768 190.34 66.768ZM211.006 68.496C211.56 68.5387 212.328 68.56 213.31 68.56C215.784 68.56 217.555 68.1547 218.622 67.344C219.688 66.576 220.222 65.2747 220.222 63.44C220.222 62.672 220.115 61.6907 219.902 60.496L208.958 14.16H217.726L222.142 35.856L224.51 50.96L226.43 35.856L230.27 14.16H239.166L229.118 61.456C228.307 65.296 227.454 68.112 226.558 69.904C225.704 71.7387 224.318 73.0613 222.398 73.872C220.478 74.7253 217.598 75.152 213.758 75.152C212.563 75.152 211.646 75.1307 211.006 75.088V68.496ZM245.048 14.16H266.808V20.816H254.456V35.728H264.184V42.32H254.456V59.536H266.936V66H245.048V14.16ZM274.471 14.16H284.263L291.623 50.064L299.239 14.16H308.775L309.735 66H302.695L301.927 29.968L294.567 66H288.871L281.383 29.84L280.679 66H273.575L274.471 14.16ZM335.641 14.16H345.049V35.92H346.969L355.353 14.16H364.761L354.905 38.672L365.529 66H355.993L346.969 42.128H345.049V66H335.641V14.16ZM371.418 14.16H386.65C395.482 14.16 399.898 19.0667 399.898 28.88C399.898 38.2667 395.268 42.96 386.01 42.96H380.826V66H371.418V14.16ZM384.474 36.304C387.034 36.304 388.762 35.7707 389.658 34.704C390.554 33.5947 391.002 31.632 391.002 28.816C391.002 26.768 390.852 25.2107 390.554 24.144C390.255 23.0347 389.636 22.2027 388.698 21.648C387.802 21.0933 386.394 20.816 384.474 20.816H380.826V36.304H384.474ZM405.936 68.496C406.49 68.5387 407.258 68.56 408.24 68.56C410.714 68.56 412.485 68.1547 413.552 67.344C414.618 66.576 415.152 65.2747 415.152 63.44C415.152 62.672 415.045 61.6907 414.832 60.496L403.888 14.16H412.656L417.072 35.856L419.44 50.96L421.36 35.856L425.2 14.16H434.096L424.048 61.456C423.237 65.296 422.384 68.112 421.488 69.904C420.634 71.7387 419.248 73.0613 417.328 73.872C415.408 74.7253 412.528 75.152 408.688 75.152C407.493 75.152 406.576 75.1307 405.936 75.088V68.496ZM439.978 14.16H469.866V66H460.522V20.88H449.322V66H439.978V14.16ZM479.073 14.16H488.481V35.792H499.041V14.16H508.513V66H499.041V42.576H488.481V66H479.073V14.16ZM517.725 14.16H539.485V20.816H527.133V35.728H536.861V42.32H527.133V59.536H539.613V66H517.725V14.16ZM546.508 14.16H554.252V46.864L568.46 14.16H574.796V66H566.924V32.72L552.716 66H546.508V14.16ZM561.356 10.064C558.37 10.064 556.087 9.232 554.508 7.568C552.93 5.904 552.14 3.62133 552.14 0.719994H557.068C557.111 2.34133 557.452 3.536 558.092 4.304C558.775 5.072 559.863 5.456 561.356 5.456C562.892 5.456 563.98 5.072 564.62 4.304C565.303 3.49333 565.644 2.29866 565.644 0.719994H570.636C570.636 3.62133 569.847 5.904 568.268 7.568C566.69 9.232 564.386 10.064 561.356 10.064ZM584.163 14.16H593.251V59.216H600.995V14.16H610.083V59.216H617.507V14.16H626.595V66H584.163V14.16ZM635.943 14.16H643.687V46.864L657.895 14.16H664.231V66H656.359V32.72L642.151 66H635.943V14.16ZM673.47 14.16H695.23V20.816H682.878V35.728H692.606V42.32H682.878V59.536H695.358V66H673.47V14.16ZM78.6165 109.16H108.504V161H99.1605V115.88H87.9605V161H78.6165V109.16ZM117.584 109.16H132.816C141.648 109.16 146.064 114.067 146.064 123.88C146.064 133.267 141.435 137.96 132.176 137.96H126.992V161H117.584V109.16ZM130.64 131.304C133.2 131.304 134.928 130.771 135.824 129.704C136.72 128.595 137.168 126.632 137.168 123.816C137.168 121.768 137.019 120.211 136.72 119.144C136.421 118.035 135.803 117.203 134.864 116.648C133.968 116.093 132.56 115.816 130.64 115.816H126.992V131.304H130.64ZM166.758 161.704C161.382 161.704 157.542 160.275 155.238 157.416C152.934 154.515 151.782 150.291 151.782 144.744V125.288C151.782 119.784 152.934 115.624 155.238 112.808C157.542 109.992 161.382 108.584 166.758 108.584C172.091 108.584 175.91 109.992 178.214 112.808C180.518 115.624 181.67 119.784 181.67 125.288V144.744C181.67 150.248 180.497 154.451 178.15 157.352C175.846 160.253 172.049 161.704 166.758 161.704ZM166.758 154.728C168.849 154.728 170.257 154.067 170.982 152.744C171.707 151.421 172.07 149.501 172.07 146.984V123.112C172.07 120.595 171.707 118.696 170.982 117.416C170.299 116.136 168.891 115.496 166.758 115.496C164.625 115.496 163.195 116.157 162.47 117.48C161.745 118.76 161.382 120.637 161.382 123.112V146.984C161.382 149.501 161.745 151.421 162.47 152.744C163.195 154.067 164.625 154.728 166.758 154.728ZM189.956 109.16H211.716V115.816H199.364V130.728H209.092V137.32H199.364V154.536H211.844V161H189.956V109.16ZM218.739 109.16H228.147V130.92H230.067L238.451 109.16H247.859L238.003 133.672L248.627 161H239.091L230.067 137.128H228.147V161H218.739V109.16ZM259.7 116.136H251.444V109.16H277.236V116.136H269.172V161H259.7V116.136ZM283.362 109.16H292.77V130.92H295.074C300.493 130.92 304.503 132.072 307.106 134.376C309.709 136.68 311.01 140.541 311.01 145.96C311.01 151.507 309.645 155.411 306.914 157.672C304.183 159.891 300.109 161 294.69 161H283.362V109.16ZM315.874 109.16H325.282V161H315.874V109.16ZM294.754 154.6C297.442 154.6 299.362 153.981 300.514 152.744C301.666 151.507 302.242 149.267 302.242 146.024C302.242 143.123 301.687 140.989 300.578 139.624C299.469 138.216 297.485 137.512 294.626 137.512H292.77V154.6H294.754ZM351.356 109.16H364.156C369.063 109.16 372.818 110.163 375.42 112.168C378.023 114.173 379.324 117.608 379.324 122.472C379.324 125.629 378.684 128.104 377.404 129.896C376.124 131.645 374.268 132.712 371.836 133.096C377.81 134.248 380.796 138.515 380.796 145.896C380.796 150.888 379.58 154.664 377.148 157.224C374.716 159.741 371.111 161 366.332 161H351.356V109.16ZM364.028 130.344C366.759 130.344 368.615 129.747 369.596 128.552C370.62 127.315 371.132 125.331 371.132 122.6C371.132 119.955 370.471 118.163 369.148 117.224C367.868 116.243 365.714 115.752 362.684 115.752H360.764V130.344H364.028ZM364.412 154.344C367.186 154.344 369.106 153.683 370.172 152.36C371.239 151.037 371.772 148.861 371.772 145.832C371.772 142.717 371.175 140.456 369.98 139.048C368.828 137.597 366.866 136.872 364.092 136.872H360.764V154.344H364.412ZM405.104 109.16H420.336C429.168 109.16 433.584 114.067 433.584 123.88C433.584 133.267 428.955 137.96 419.696 137.96H414.512V161H405.104V109.16ZM418.16 131.304C420.72 131.304 422.448 130.771 423.344 129.704C424.24 128.595 424.688 126.632 424.688 123.816C424.688 121.768 424.539 120.211 424.24 119.144C423.941 118.035 423.323 117.203 422.384 116.648C421.488 116.093 420.08 115.816 418.16 115.816H414.512V131.304H418.16ZM454.278 161.704C448.902 161.704 445.062 160.275 442.758 157.416C440.454 154.515 439.302 150.291 439.302 144.744V125.288C439.302 119.784 440.454 115.624 442.758 112.808C445.062 109.992 448.902 108.584 454.278 108.584C459.611 108.584 463.43 109.992 465.734 112.808C468.038 115.624 469.19 119.784 469.19 125.288V144.744C469.19 150.248 468.017 154.451 465.67 157.352C463.366 160.253 459.569 161.704 454.278 161.704ZM454.278 154.728C456.369 154.728 457.777 154.067 458.502 152.744C459.227 151.421 459.59 149.501 459.59 146.984V123.112C459.59 120.595 459.227 118.696 458.502 117.416C457.819 116.136 456.411 115.496 454.278 115.496C452.145 115.496 450.715 116.157 449.99 117.48C449.265 118.76 448.902 120.637 448.902 123.112V146.984C448.902 149.501 449.265 151.421 449.99 152.744C450.715 154.067 452.145 154.728 454.278 154.728ZM491.428 161.704C486.052 161.704 482.234 160.211 479.972 157.224C477.754 154.195 476.644 149.928 476.644 144.424V125.928C476.644 120.253 477.754 115.944 479.972 113C482.191 110.056 486.01 108.584 491.428 108.584C496.506 108.584 500.111 109.864 502.244 112.424C504.378 114.984 505.444 118.675 505.444 123.496V127.848H496.356V123.368C496.356 121.533 496.271 120.104 496.1 119.08C495.93 118.013 495.482 117.16 494.756 116.52C494.074 115.837 492.986 115.496 491.492 115.496C489.956 115.496 488.804 115.859 488.036 116.584C487.268 117.267 486.756 118.205 486.5 119.4C486.287 120.552 486.18 122.067 486.18 123.944V146.408C486.18 149.352 486.564 151.485 487.332 152.808C488.1 154.088 489.487 154.728 491.492 154.728C492.943 154.728 494.01 154.387 494.692 153.704C495.418 153.021 495.866 152.125 496.036 151.016C496.25 149.864 496.356 148.349 496.356 146.472V141.8H505.444V145.96C505.444 150.952 504.399 154.835 502.308 157.608C500.218 160.339 496.591 161.704 491.428 161.704ZM527.271 161.704C521.895 161.704 518.076 160.211 515.815 157.224C513.596 154.195 512.487 149.928 512.487 144.424V125.928C512.487 120.253 513.596 115.944 515.815 113C518.034 110.056 521.852 108.584 527.271 108.584C532.348 108.584 535.954 109.864 538.087 112.424C540.22 114.984 541.287 118.675 541.287 123.496V127.848H532.199V123.368C532.199 121.533 532.114 120.104 531.943 119.08C531.772 118.013 531.324 117.16 530.599 116.52C529.916 115.837 528.828 115.496 527.335 115.496C525.799 115.496 524.647 115.859 523.879 116.584C523.111 117.267 522.599 118.205 522.343 119.4C522.13 120.552 522.023 122.067 522.023 123.944V146.408C522.023 149.352 522.407 151.485 523.175 152.808C523.943 154.088 525.33 154.728 527.335 154.728C528.786 154.728 529.852 154.387 530.535 153.704C531.26 153.021 531.708 152.125 531.879 151.016C532.092 149.864 532.199 148.349 532.199 146.472V141.8H541.287V145.96C541.287 150.952 540.242 154.835 538.151 157.608C536.06 160.339 532.434 161.704 527.271 161.704ZM549.29 109.16H557.034V141.864L571.242 109.16H577.578V161H569.706V127.72L555.498 161H549.29V109.16ZM586.944 109.16H594.688V141.864L608.896 109.16H615.232V161H607.36V127.72L593.152 161H586.944V109.16Z" fill="white"/>
</svg>
